<svg width="184" height="177" fill="none" xmlns="http://www.w3.org/2000/svg"><g clip-path="url(#a)" fill="#FF5722"><path d="M4.84 128.32c-1.44 0-2.61 1.18-2.61 2.63s1.17 2.63 2.61 2.63 2.61-1.18 2.61-2.63-1.17-2.63-2.61-2.63Zm44.66 5.26a2.62 2.62 0 0 0 2.61-2.63 2.62 2.62 0 0 0-2.61-2.63 2.62 2.62 0 0 0-2.61 2.63 2.62 2.62 0 0 0 2.61 2.63Zm-22.33-5.26c-1.44 0-2.61 1.18-2.61 2.63s1.17 2.63 2.61 2.63 2.61-1.18 2.61-2.63-1.17-2.63-2.61-2.63Zm-.37-21.38c-1.44 0-2.61 1.18-2.61 2.63s1.17 2.63 2.61 2.63 2.61-1.18 2.61-2.63-1.17-2.63-2.61-2.63Zm-22.33 0c-1.44 0-2.61 1.18-2.61 2.63s1.17 2.63 2.61 2.63 2.61-1.18 2.61-2.63-1.17-2.63-2.61-2.63Zm66.99 0c-1.44 0-2.61 1.18-2.61 2.63s1.17 2.63 2.61 2.63 2.61-1.18 2.61-2.63-1.17-2.63-2.61-2.63Zm-22.33 0c-1.44 0-2.61 1.18-2.61 2.63s1.17 2.63 2.61 2.63 2.61-1.18 2.61-2.63-1.17-2.63-2.61-2.63ZM4.84 171.1c-1.44 0-2.61 1.18-2.61 2.63s1.17 2.63 2.61 2.63 2.61-1.18 2.61-2.63-1.17-2.63-2.61-2.63Zm21.96-21.39c-1.44 0-2.61 1.18-2.61 2.63s1.17 2.63 2.61 2.63 2.61-1.18 2.61-2.63-1.17-2.63-2.61-2.63Zm-22.33 0c-1.44 0-2.61 1.18-2.61 2.63s1.17 2.63 2.61 2.63 2.61-1.18 2.61-2.63-1.17-2.63-2.61-2.63Zm88.95-64.16c-1.44 0-2.61 1.18-2.61 2.63s1.17 2.63 2.61 2.63 2.61-1.18 2.61-2.63-1.17-2.63-2.61-2.63Zm-44.66 0c-1.44 0-2.61 1.18-2.61 2.63s1.17 2.63 2.61 2.63 2.61-1.18 2.61-2.63-1.17-2.63-2.61-2.63Zm22.33 5.26a2.62 2.62 0 0 0 2.61-2.63 2.62 2.62 0 0 0-2.61-2.63 2.62 2.62 0 0 0-2.61 2.63 2.62 2.62 0 0 0 2.61 2.63Zm-44.67-5.26c-1.44 0-2.61 1.18-2.61 2.63s1.17 2.63 2.61 2.63 2.61-1.18 2.61-2.63-1.16-2.63-2.61-2.63Zm-22.33 0c-1.44 0-2.61 1.18-2.61 2.63s1.17 2.63 2.61 2.63 2.61-1.18 2.61-2.63-1.17-2.63-2.61-2.63Zm88.95-21.39c-1.44 0-2.61 1.18-2.61 2.63s1.17 2.63 2.61 2.63 2.61-1.18 2.61-2.63-1.17-2.63-2.61-2.63Zm-22.33 0c-1.44 0-2.61 1.18-2.61 2.63s1.17 2.63 2.61 2.63 2.61-1.18 2.61-2.63-1.17-2.63-2.61-2.63Zm-22.33 0c-1.44 0-2.61 1.18-2.61 2.63s1.17 2.63 2.61 2.63 2.61-1.18 2.61-2.63-1.17-2.63-2.61-2.63Zm67 0c-1.44 0-2.61 1.18-2.61 2.63s1.17 2.63 2.61 2.63 2.61-1.18 2.61-2.63-1.17-2.63-2.61-2.63Zm-111.66 0c-1.44 0-2.61 1.18-2.61 2.63s1.17 2.63 2.61 2.63 2.61-1.18 2.61-2.63-1.17-2.63-2.61-2.63Zm22.33 0c-1.44 0-2.61 1.18-2.61 2.63s1.17 2.63 2.61 2.63 2.61-1.18 2.61-2.63-1.17-2.63-2.61-2.63ZM3.35 42.77c-1.44 0-2.61 1.18-2.61 2.63s1.17 2.63 2.61 2.63 2.61-1.18 2.61-2.63-1.17-2.63-2.61-2.63Zm89.32 5.26a2.62 2.62 0 0 0 2.61-2.63 2.62 2.62 0 0 0-2.61-2.63 2.62 2.62 0 0 0-2.61 2.63 2.62 2.62 0 0 0 2.61 2.63Zm44.66 0a2.62 2.62 0 0 0 2.61-2.63 2.62 2.62 0 0 0-2.61-2.63 2.62 2.62 0 0 0-2.61 2.63 2.62 2.62 0 0 0 2.61 2.63Zm-66.99-5.26c-1.44 0-2.61 1.18-2.61 2.63s1.17 2.63 2.61 2.63 2.61-1.18 2.61-2.63-1.17-2.63-2.61-2.63Zm-22.33 0c-1.44 0-2.61 1.18-2.61 2.63s1.17 2.63 2.61 2.63 2.61-1.18 2.61-2.63-1.17-2.63-2.61-2.63Zm-22.33 0c-1.44 0-2.61 1.18-2.61 2.63s1.17 2.63 2.61 2.63 2.61-1.18 2.61-2.63-1.17-2.63-2.61-2.63Zm89.32 0c-1.44 0-2.61 1.18-2.61 2.63s1.17 2.63 2.61 2.63 2.61-1.18 2.61-2.63-1.17-2.63-2.61-2.63ZM2.98 26.64a2.62 2.62 0 0 0 2.61-2.63 2.62 2.62 0 0 0-2.61-2.63 2.62 2.62 0 0 0-2.61 2.63 2.62 2.62 0 0 0 2.61 2.63Zm111.65-5.25c-1.44 0-2.61 1.18-2.61 2.63s1.17 2.63 2.61 2.63 2.61-1.18 2.61-2.63-1.17-2.63-2.61-2.63Zm-89.32 0c-1.44 0-2.61 1.18-2.61 2.63s1.17 2.63 2.61 2.63 2.61-1.18 2.61-2.63-1.17-2.63-2.61-2.63Zm44.66 0c-1.44 0-2.61 1.18-2.61 2.63s1.17 2.63 2.61 2.63 2.61-1.18 2.61-2.63-1.17-2.63-2.61-2.63Zm-22.33 0c-1.44 0-2.61 1.18-2.61 2.63s1.17 2.63 2.61 2.63 2.61-1.18 2.61-2.63-1.17-2.63-2.61-2.63Zm44.66 0c-1.44 0-2.61 1.18-2.61 2.63s1.17 2.63 2.61 2.63 2.61-1.18 2.61-2.63-1.17-2.63-2.61-2.63Zm66.99 0c-1.44 0-2.61 1.18-2.61 2.63s1.17 2.63 2.61 2.63 2.61-1.18 2.61-2.63-1.16-2.63-2.61-2.63Zm-22.33 0c-1.44 0-2.61 1.18-2.61 2.63s1.17 2.63 2.61 2.63 2.61-1.18 2.61-2.63-1.16-2.63-2.61-2.63ZM24.94 5.25c1.44 0 2.61-1.18 2.61-2.63S26.38-.01 24.94-.01s-2.61 1.18-2.61 2.63 1.17 2.63 2.61 2.63Zm-22.33 0c1.44 0 2.61-1.18 2.61-2.63A2.62 2.62 0 0 0 2.61 0C1.18 0 0 1.18 0 2.63s1.17 2.63 2.61 2.63v-.01Zm156.31.01a2.62 2.62 0 0 0 2.61-2.63A2.62 2.62 0 0 0 158.92 0a2.62 2.62 0 0 0-2.61 2.63 2.62 2.62 0 0 0 2.61 2.63Zm-66.99-.01c1.44 0 2.61-1.18 2.61-2.63S93.37-.01 91.93-.01s-2.61 1.18-2.61 2.63 1.17 2.63 2.61 2.63Zm22.33 0c1.44 0 2.61-1.18 2.61-2.63s-1.17-2.63-2.61-2.63-2.61 1.18-2.61 2.63 1.17 2.63 2.61 2.63Zm22.33 0c1.44 0 2.61-1.18 2.61-2.63s-1.17-2.63-2.61-2.63-2.61 1.18-2.61 2.63 1.17 2.63 2.61 2.63Zm-89.32 0c1.44 0 2.61-1.18 2.61-2.63S48.71-.01 47.27-.01s-2.61 1.18-2.61 2.63 1.17 2.63 2.61 2.63Zm133.98 0c1.44 0 2.61-1.18 2.61-2.63s-1.16-2.63-2.61-2.63-2.61 1.18-2.61 2.63 1.17 2.63 2.61 2.63Zm-111.65 0c1.44 0 2.61-1.18 2.61-2.63S71.04-.01 69.6-.01s-2.61 1.18-2.61 2.63 1.17 2.63 2.61 2.63Z"/></g><defs><clipPath id="a"><path fill="#fff" d="M0 0h183.86v176.35H0z"/></clipPath></defs></svg>