<svg viewBox="0 0 64 64" xml:space="preserve" xmlns="http://www.w3.org/2000/svg"><path d="M39.478 36.159h-6.957v-9.804c.22-.11.431-.246.614-.43l8.189-8.189a5.652 5.652 0 0 0 1.653-3.967 5.594 5.594 0 0 0-1.653-3.978c-2.176-2.176-5.732-2.178-7.936.002l-1.667 1.678a.342.342 0 0 1-.478.001l-1.68-1.681a5.575 5.575 0 0 0-3.967-1.643 5.542 5.542 0 0 0-3.737 1.435c-1.531 1.37-2.146 3.517-1.604 5.603a1 1 0 0 0 1.936-.502c-.353-1.358.032-2.742 1.008-3.615 1.359-1.232 3.64-1.177 4.951.137l1.681 1.682c.91.908 2.392.909 3.306-.003l1.664-1.675c1.418-1.402 3.709-1.404 5.109-.004a3.65 3.65 0 0 1 1.067 2.563c0 .944-.389 1.874-1.067 2.553l-8.189 8.189a.342.342 0 0 1-.477 0l-7.838-7.838a.999.999 0 1 0-1.418 1.41l7.842 7.842c.205.205.441.357.69.47v9.764h-7.033a2.828 2.828 0 0 0-2.82 2.83c0 1.259.835 2.315 1.976 2.677l1.311 12.423a2.002 2.002 0 0 0 1.983 1.761h11.09a2.004 2.004 0 0 0 1.984-1.775L40.1 43.767a1 1 0 0 0-.889-1.1.993.993 0 0 0-1.1.889L37.028 53.85l-11.086.014-1.273-12.054h14.809a2.824 2.824 0 0 0 2.82-2.82 2.828 2.828 0 0 0-2.82-2.831zm0 3.651h-15.99c-.46 0-.82-.36-.82-.82 0-.458.368-.83.82-.83h15.99c.452 0 .82.372.82.83a.811.811 0 0 1-.82.82z"/><path d="M35.847 25.097a7.537 7.537 0 0 0-3.188 6.099 1.907 1.907 0 0 0 1.28 1.815 7.54 7.54 0 0 0 6.811-.948h.001a7.55 7.55 0 0 0 3.185-5.979 2.018 2.018 0 0 0-1.384-1.966 7.536 7.536 0 0 0-6.705.979zm3.753 5.331a5.543 5.543 0 0 1-4.94.716 5.528 5.528 0 0 1 2.338-4.412 5.489 5.489 0 0 1 4.938-.691 5.538 5.538 0 0 1-2.336 4.387z"/></svg>