<svg width="32" height="32" fill="none" xmlns="http://www.w3.org/2000/svg"><path fill-rule="evenodd" clip-rule="evenodd" d="M22.586 4a6.743 6.743 0 0 1 6.748 6.733v10.534c0 3.72-3.027 6.733-6.748 6.733H9.414c-3.721 0-6.747-3.013-6.747-6.733V10.733A6.734 6.734 0 0 1 9.414 4h13.172Zm2.121 8.72.107-.107a1.031 1.031 0 0 0-.015-1.333 1.121 1.121 0 0 0-.705-.347c-.28-.014-.547.08-.748.267L17.334 16a2.088 2.088 0 0 1-2.667 0l-6-4.8c-.414-.307-.988-.267-1.333.093-.36.36-.4.934-.095 1.334l.175.173 6.067 4.733a4.191 4.191 0 0 0 2.6.907c.945 0 1.866-.32 2.612-.907l6.014-4.813Z" fill="#191825" fill-opacity=".75"/></svg>