<svg width="65" height="171" fill="none" xmlns="http://www.w3.org/2000/svg"><g clip-path="url(#a)" fill="#FF5722"><path d="M44.025 170.703H65l-10.487-10.487-10.488 10.487Zm0-35.539H65l-10.487-10.487-10.488 10.487Zm0-35.554H65L54.513 89.125 44.025 99.61Zm0-35.538H65L54.513 53.585 44.025 64.072Zm0-35.538H65L54.513 18.03 44.025 28.534ZM0 153.426h20.975l-10.487-10.487L0 153.426Zm0-35.553h20.975l-10.488-10.488L0 117.873Zm0-35.539h20.975L10.487 71.847 0 82.334Zm0-35.539h20.975L10.487 36.308 0 46.795Zm0-35.553h20.975L10.487.754 0 11.242Z"/></g><defs><clipPath id="a"><path fill="#fff" transform="rotate(180 32.5 85.352)" d="M0 0h65v169.949H0z"/></clipPath></defs></svg>